<svg width="28" height="28" viewBox="0 0 28 28" fill="none" xmlns="http://www.w3.org/2000/svg">
<path d="M2.47496 20.3112C1.25946 15.4492 0.651712 13.0197 1.92813 11.3848C3.20313 9.75 5.71063 9.75 10.7214 9.75H17.2805C22.2927 9.75 24.7974 9.75 26.0738 11.3848C27.3502 13.0183 26.7425 15.4507 25.527 20.3112C24.7535 23.4038 24.3681 24.9494 23.215 25.8504C22.0618 26.75 20.468 26.75 17.2805 26.75H10.7214C7.53388 26.75 5.94013 26.75 4.78696 25.8504C3.63379 24.9494 3.24705 23.4038 2.47496 20.3112Z" stroke="#8C8C8C" stroke-width="2.125"/>
<path d="M24.625 10.4583L23.6192 6.76788C23.231 5.34413 23.0369 4.63296 22.6388 4.09604C22.2419 3.56262 21.7029 3.1517 21.0833 2.91029C20.46 2.66663 19.7233 2.66663 18.25 2.66663M3.375 10.4583L4.38083 6.76788C4.769 5.34413 4.96308 4.63296 5.36117 4.09604C5.75808 3.56262 6.29714 3.1517 6.91667 2.91029C7.54 2.66663 8.27667 2.66663 9.75 2.66663" stroke="#8C8C8C" stroke-width="2.125"/>
<path d="M9.75 2.66667C9.75 2.29094 9.89926 1.93061 10.1649 1.66493C10.4306 1.39926 10.7909 1.25 11.1667 1.25H16.8333C17.2091 1.25 17.5694 1.39926 17.8351 1.66493C18.1007 1.93061 18.25 2.29094 18.25 2.66667C18.25 3.04239 18.1007 3.40272 17.8351 3.6684C17.5694 3.93408 17.2091 4.08333 16.8333 4.08333H11.1667C10.7909 4.08333 10.4306 3.93408 10.1649 3.6684C9.89926 3.40272 9.75 3.04239 9.75 2.66667Z" stroke="#8C8C8C" stroke-width="2.125"/>
</svg>
