<svg width="101" height="35" viewBox="0 0 101 35" fill="none" xmlns="http://www.w3.org/2000/svg">
<path d="M26.9729 26.0147H7.09743M17.0352 26.0147V17.4966M21.2942 26.0147V20.3359M12.7761 26.0147V20.3359M26.9729 31.6934V16.5454C27.5001 16.3533 27.9841 16.0589 28.3972 15.6793C28.8103 15.2996 29.1443 14.842 29.3801 14.3329C29.6159 13.8238 29.7488 13.2731 29.7712 12.7125C29.7936 12.1518 29.705 11.5923 29.5106 11.066C29.3161 10.5397 29.0196 10.057 28.6381 9.64557C28.2566 9.23416 27.7976 8.90215 27.2874 8.66862C26.7773 8.43508 26.226 8.30462 25.6653 8.28471C25.1046 8.2648 24.5454 8.35585 24.02 8.55262C23.4947 5.96028 20.5276 3.2998 17.0352 3.2998C13.5428 3.2998 10.5756 5.96028 10.0504 8.55262C8.99045 8.16103 7.81839 8.20654 6.79203 8.67911C5.76567 9.15169 4.96908 10.0126 4.5775 11.0725C4.18591 12.1325 4.23142 13.3045 4.70399 14.3309C5.17657 15.3572 6.03752 16.1538 7.09743 16.5454V31.6934H26.9729Z" stroke="black" stroke-width="2.83936"/>
<path d="M43.2746 10.6024L47.2009 17.2381H47.353L51.2983 10.6024H55.9471L50.0054 20.3373L56.0802 30.0723H51.3459L47.353 23.427H47.2009L43.2081 30.0723H38.4927L44.5865 20.3373L38.6068 10.6024H43.2746Z" fill="#FE8026"/>
<path d="M70.5781 10.6024H74.6945V23.2464C74.6945 24.6661 74.3554 25.9083 73.6773 26.9731C73.0055 28.0378 72.0643 28.8681 70.8538 29.4638C69.6432 30.0533 68.2331 30.348 66.6233 30.348C65.0071 30.348 63.5938 30.0533 62.3832 29.4638C61.1727 28.8681 60.2315 28.0378 59.5597 26.9731C58.8879 25.9083 58.552 24.6661 58.552 23.2464V10.6024H62.6684V22.8946C62.6684 23.6362 62.8301 24.2953 63.1533 24.8721C63.4829 25.4488 63.9455 25.902 64.5413 26.2315C65.137 26.5611 65.831 26.7259 66.6233 26.7259C67.4218 26.7259 68.1158 26.5611 68.7052 26.2315C69.301 25.902 69.7605 25.4488 70.0837 24.8721C70.4133 24.2953 70.5781 23.6362 70.5781 22.8946V10.6024ZM78.0813 10.6024H83.1579L88.5197 23.6837H88.7479L94.1097 10.6024H99.1863V30.0723H95.1935V17.3997H95.0319L89.9933 29.9772H87.2744L82.2358 17.3522H82.0741V30.0723H78.0813V10.6024Z" fill="black"/>
</svg>
